Liv Ullmann plays the widowed, crippled Anna Fromm, who while traveling on a remote island calls upon reclusive ex-convict Andreas (Max von Sydow) in order to use his telephone. After Anna leaves, Andreas discovers she's left her purse behind; he opens it, hoping to find some identification. A letter in the purse details Anna's unhappy marriage and the depths of her loneliness. Eventually, Anna moves in with Andreas, who has become more closely acquainted with her through the intervention of Anna's friends Ellis and Evan Vergerus (Bibi Andersson and Erland Josephson). But tensions and conflicts ensue, and threaten to destroy the burgeoning relationship between Anna and Andreas. 

   General
      Complete name : En Passion.avi
      Format : AVI
      Format/Info : Audio Video Interleave
      File size : 1.36 GiB
      Duration : 1h 40mn
      Overall bit rate : 1 936 Kbps
      Writing application : FairUse Wizard - http://fairusewizard.com      
   Video #0
      ID : 0
      Format : MPEG-4 Visual
      Format profile : AdvancedSimple@L5
      Format settings, BVOP : Yes
      Format settings, QPel : No
      Format settings, GMC : No warppoints
      Format settings, Matrix : Default (MPEG)
      Muxing mode : Packed bitstream
      Codec ID : XVID
      Codec ID/Hint : XviD
      Duration : 1h 40mn
      Bit rate : 1 735 Kbps
      Width : 640 pixels
      Height : 384 pixels
      Display aspect ratio : 1.667
      Frame rate : 23.976 fps
      Resolution : 24 bits
      Colorimetry : 4:2:0
      Scan type : Progressive
      Bits/(Pixel*Frame) : 0.294
      Stream size : 1.22 GiB (90%)
      Writing library : XviD 1.2.1 (UTC 2008-12-04)
   Audio #1
      ID : 1
      Format : AC-3
      Format/Info : Audio Coding 3
      Format profile : Dolby Digital
      Codec ID : 2000
      Duration : 1h 40mn
      Bit rate mode : Constant
      Bit rate : 192 Kbps
      Channel(s) : 2 channels
      Channel positions : L R
      Sampling rate : 48.0 KHz
      Stream size : 138 MiB (10%)
      Alignment : Split accross interleaves
      Interleave, duration : 42 ms (1.00 video frame)
      Interleave, preload duration : 500 ms
 
http://www.imdb.com/title/tt0064793/

Swedish audio; English, French, Spanish and Portuguese subtitles

Ingmar Bergman - En Passion (1969)